<svg width="412" height="412" xmlns="http://www.w3.org/2000/svg" xmlns:xlink="http://www.w3.org/1999/xlink" xml:space="preserve" overflow="hidden"><g transform="translate(-467 -356)"><path d="M494.5 562C494.5 463.417 574.417 383.5 673 383.5 771.583 383.5 851.5 463.417 851.5 562 851.5 660.583 771.583 740.5 673 740.5 574.417 740.5 494.5 660.583 494.5 562Z" stroke="#000000" stroke-width="55" stroke-miterlimit="8" fill="none" fill-rule="evenodd"/><path d="M835.016 756.886 652 578.407C642.939 569.57 642.757 555.061 651.593 546 660.43 536.939 674.939 536.757 684 545.593L867.016 724.072C876.077 732.909 876.259 747.418 867.423 756.479 858.586 765.54 844.078 765.722 835.016 756.886ZM620 611.22C592.817 584.711 592.271 541.184 618.78 514 645.289 486.817 688.816 486.271 716 512.78 743.183 539.29 743.729 582.816 717.22 610 690.71 637.183 647.184 637.729 620 611.22Z" fill="#4472C4"/></g></svg>