<?xml version="1.0" encoding="UTF-8" standalone="no"?>
<svg
   width="2642"
   height="925"
   xml:space="preserve"
   overflow="hidden"
   version="1.1"
   id="svg3"
   sodipodi:docname="quantifai_logo.svg"
   inkscape:version="1.4.2 (f4327f4, 2025-05-13)"
   xmlns:inkscape="http://www.inkscape.org/namespaces/inkscape"
   xmlns:sodipodi="http://sodipodi.sourceforge.net/DTD/sodipodi-0.dtd"
   xmlns="http://www.w3.org/2000/svg"
   xmlns:svg="http://www.w3.org/2000/svg"><defs
     id="defs3" /><sodipodi:namedview
     id="namedview3"
     pagecolor="#ffffff"
     bordercolor="#000000"
     borderopacity="0.25"
     inkscape:showpageshadow="2"
     inkscape:pageopacity="0.0"
     inkscape:pagecheckerboard="0"
     inkscape:deskcolor="#d1d1d1"
     inkscape:zoom="0.67221802"
     inkscape:cx="949.84065"
     inkscape:cy="461.90372"
     inkscape:window-width="1920"
     inkscape:window-height="1009"
     inkscape:window-x="1912"
     inkscape:window-y="-8"
     inkscape:window-maximized="1"
     inkscape:current-layer="svg3" /><g
     transform="translate(-303.36261,-132.69369)"
     id="g3"><path
       d="m 494.5,562 c 0,-98.583 79.917,-178.5 178.5,-178.5 98.583,0 178.5,79.917 178.5,178.5 0,98.583 -79.917,178.5 -178.5,178.5 -98.583,0 -178.5,-79.917 -178.5,-178.5 z"
       stroke="#000000"
       stroke-width="55"
       stroke-miterlimit="8"
       fill="none"
       fill-rule="evenodd"
       id="path1" /><path
       d="M 835.016,756.886 652,578.407 c -9.061,-8.837 -9.243,-23.346 -0.407,-32.407 8.837,-9.061 23.346,-9.243 32.407,-0.407 l 183.016,178.479 c 9.061,8.837 9.243,23.346 0.407,32.407 -8.837,9.061 -23.345,9.243 -32.407,0.407 z M 620,611.22 c -27.183,-26.509 -27.729,-70.036 -1.22,-97.22 26.509,-27.183 70.036,-27.729 97.22,-1.22 27.183,26.51 27.729,70.036 1.22,97.22 -26.51,27.183 -70.036,27.729 -97.22,1.22 z"
       fill="#4472c4"
       id="path2" /><path
       d="m 81.855469,-218.28125 v 142.226563 q 0,17.832031 6.660156,27.070312 6.660156,9.023438 20.195315,9.023438 13.10547,0 25.13672,-10.742188 12.24609,-10.957031 25.78125,-29.433594 V -218.28125 h 52.42187 V 0 h -45.33203 l -1.28906,-32.226562 q -6.875,8.378906 -13.96485,15.253906 -7.08984,6.875 -15.46875,11.816406 -8.16406,4.7265625 -18.04687,7.3046875 -9.66797,2.7929687 -21.484376,2.7929687 -16.757813,0 -29.433594,-5.3710937 Q 54.570312,-6.015625 46.191406,-16.113281 37.8125,-26.210937 33.515625,-40.175781 29.433594,-54.355469 29.433594,-71.757812 V -218.28125 Z M 408.63281,0 407.34375,-28.574219 q -6.875,7.304688 -14.39453,13.535156 -7.51953,6.0156255 -16.54297,10.5273443 Q 367.38281,0 356.64062,2.3632813 346.11328,4.9414062 333.4375,4.9414062 316.67969,4.9414062 304.00391,0 q -12.67579,-4.9414062 -21.26954,-13.75 -8.59375,-8.808594 -13.10546,-21.269531 -4.29688,-12.460938 -4.29688,-27.5 0,-15.46875 6.44531,-28.574219 6.66016,-13.10547 19.98047,-22.55859 13.53516,-9.45313 33.51563,-14.82422 20.19531,-5.3711 47.26562,-5.3711 h 28.57422 v -13.10546 q 0,-8.37891 -2.36328,-15.03907 -2.36328,-6.875 -7.73438,-11.60156 -5.15625,-4.72656 -13.53515,-7.30469 -8.37891,-2.57812 -20.625,-2.57812 -19.33594,0 -38.24219,4.51172 -18.69141,4.29687 -36.30859,12.24609 v -41.89453 q 15.68359,-6.23047 36.09375,-10.3125 20.625,-4.08203 42.7539,-4.08203 24.27735,0 41.67969,4.72656 17.40234,4.51172 28.57422,13.75 11.38672,9.23828 16.75781,23.20313 5.3711,13.75 5.3711,32.22656 V 0 Z m -7.51953,-96.464844 h -32.01172 q -13.32031,0 -22.55859,2.578125 -9.23828,2.578125 -15.03906,7.089844 -5.80079,4.511719 -8.59375,10.527344 -2.57813,5.800781 -2.57813,12.460937 0,13.320313 8.59375,20.410157 8.59375,6.875 23.41797,6.875 10.95703,0 22.77344,-7.949219 11.8164,-7.949219 25.99609,-22.773438 z M 643.88672,0 v -142.22656 q 0,-35.87891 -26.64063,-35.87891 -13.32031,0 -25.5664,10.74219 -12.03125,10.74219 -25.56641,29.21875 V 0 h -52.42187 v -218.28125 h 45.33203 l 1.28906,32.22656 q 6.66016,-8.3789 13.75,-15.2539 7.30469,-6.875 15.68359,-11.60157 8.37891,-4.9414 18.04688,-7.51953 9.66797,-2.57812 21.69922,-2.57812 16.75781,0 29.21875,5.58594 12.46093,5.37109 20.83984,15.46875 8.37891,9.88281 12.46094,24.0625 4.29687,13.96484 4.29687,31.36718 V 0 Z m 291.75781,-2.1484375 q -14.17969,3.2226562 -28.57422,5.15625 -14.39453,1.9335937 -27.28515,1.9335937 -21.48438,0 -37.16797,-4.5117187 -15.46875,-4.5117187 -25.78125,-13.7500005 -10.09766,-9.238281 -15.03907,-23.417968 -4.72656,-14.394531 -4.72656,-34.160156 V -177.46094 h -58.65234 v -40.82031 h 58.65234 v -55.85937 l 53.71094,-13.96485 v 69.82422 h 84.86328 v 40.82031 h -84.86328 v 102.695315 q 0,18.691406 8.59375,28.359375 8.59375,9.453125 28.78906,9.453125 12.89063,0 25.13672,-2.148437 12.24609,-2.148438 22.34375,-4.941407 z M 1125.9961,-278.00781 q 0,7.08984 -2.5781,13.32031 -2.5782,6.23047 -7.3047,10.95703 -4.5117,4.51172 -10.7422,7.30469 -6.2305,2.57812 -13.5352,2.57812 -7.3046,0 -13.75,-2.57812 -6.2304,-2.79297 -10.957,-7.30469 -4.5117,-4.72656 -7.0898,-10.95703 -2.5782,-6.23047 -2.5782,-13.32031 0,-7.08985 2.5782,-13.32031 2.5781,-6.23047 7.0898,-10.95704 4.7266,-4.72656 10.957,-7.30468 6.4454,-2.79297 13.75,-2.79297 7.3047,0 13.5352,2.79297 6.2305,2.57812 10.7422,7.30468 4.7265,4.72657 7.3047,10.95704 2.5781,6.23046 2.5781,13.32031 z m -58.0078,100.54687 h -61.6602 v -40.82031 h 115.3711 v 177.460938 h 62.9492 V 0 H 998.80859 v -40.820312 h 69.17971 z m 367.3828,-81.64062 q -9.4531,-3.00781 -22.5586,-4.94141 -12.8906,-2.14844 -26.4258,-2.14844 -9.2383,0 -17.1875,2.57813 -7.9492,2.36328 -13.75,7.73437 -5.8008,5.3711 -9.2383,13.75 -3.2226,8.16407 -3.2226,19.98047 v 35.23438 h 85.7226 v 40.82031 h -85.7226 V 0 h -52.8516 v -146.09375 h -63.3789 v -40.82031 h 63.3789 V -220 q 0,-23.20312 6.6602,-39.74609 6.875,-16.75782 19.1211,-27.28516 12.4609,-10.74219 29.8633,-15.68359 17.4023,-4.94141 38.8867,-4.94141 14.1797,0 26.8554,1.93359 12.8907,1.71875 23.8477,4.29688 z m -225.8008,40.82031 z"
       id="text2"
       style="font-weight:700;font-size:440px;font-family:Consolas, Consolas_MSFontService, sans-serif"
       transform="translate(910.242,764)"
       aria-label="uantif" /><path
       d="m 166.71875,0 -1.28906,-28.574219 q -6.875,7.304688 -14.39453,13.535156 -7.51954,6.0156255 -16.54297,10.5273443 Q 125.46875,0 114.72656,2.3632813 104.19922,4.9414062 91.523437,4.9414062 74.765625,4.9414062 62.089844,0 49.414062,-4.9414062 40.820312,-13.75 q -8.59375,-8.808594 -13.105468,-21.269531 -4.296875,-12.460938 -4.296875,-27.5 0,-15.46875 6.445312,-28.574219 6.660156,-13.10547 19.980469,-22.55859 13.535156,-9.45313 33.515625,-14.82422 20.195315,-5.3711 47.265625,-5.3711 h 28.57422 v -13.10546 q 0,-8.37891 -2.36328,-15.03907 -2.36328,-6.875 -7.73438,-11.60156 -5.15625,-4.72656 -13.53515,-7.30469 -8.37891,-2.57812 -20.625,-2.57812 -19.335941,0 -38.242191,4.51172 -18.691407,4.29687 -36.308594,12.24609 v -41.89453 q 15.683594,-6.23047 36.09375,-10.3125 20.625,-4.08203 42.753905,-4.08203 24.27734,0 41.67969,4.72656 17.40234,4.51172 28.57422,13.75 11.38672,9.23828 16.75781,23.20313 5.37109,13.75 5.37109,32.22656 V 0 Z m -7.51953,-96.464844 H 127.1875 q -13.32031,0 -22.55859,2.578125 -9.238285,2.578125 -15.039066,7.089844 -5.800782,4.511719 -8.59375,10.527344 -2.578125,5.800781 -2.578125,12.460937 0,13.320313 8.59375,20.410157 8.59375,6.875 23.417971,6.875 10.95703,0 22.77343,-7.949219 11.81641,-7.949219 25.9961,-22.773438 z M 400.25391,-278.00781 q 0,7.08984 -2.57813,13.32031 -2.57812,6.23047 -7.30469,10.95703 -4.51172,4.51172 -10.74218,7.30469 -6.23047,2.57812 -13.53516,2.57812 -7.30469,0 -13.75,-2.57812 -6.23047,-2.79297 -10.95703,-7.30469 -4.51172,-4.72656 -7.08985,-10.95703 -2.57812,-6.23047 -2.57812,-13.32031 0,-7.08985 2.57812,-13.32031 2.57813,-6.23047 7.08985,-10.95704 4.72656,-4.72656 10.95703,-7.30468 6.44531,-2.79297 13.75,-2.79297 7.30469,0 13.53516,2.79297 6.23046,2.57812 10.74218,7.30468 4.72657,4.72657 7.30469,10.95704 2.57813,6.23046 2.57813,13.32031 z m -58.00782,100.54687 h -61.66015 v -40.82031 h 115.37109 v 177.460938 h 62.94922 V 0 H 273.06641 v -40.820312 h 69.17968 z"
       id="text3"
       style="font-weight:700;font-size:440px;font-family:Consolas, Consolas_MSFontService, sans-serif;fill:#4472c4"
       transform="translate(2360.87,764)"
       aria-label="ai" /></g></svg>
